<svg xml:space="preserve" viewBox="0 0 100 100" y="0" x="0" xmlns="http://www.w3.org/2000/svg" id="Thinking" version="1" width="200" height="200" style="width:100%;height:100%;background-size:initial;background-repeat-y:initial;background-repeat-x:initial;background-position-y:initial;background-position-x:initial;background-origin:initial;background-image:initial;background-clip:initial;background-attachment:initial;animation-play-state:paused"><style>@keyframes dotAnimation{0%,to{opacity:0}25%,75%{opacity:1}}@keyframes moveCloudX{0%,to{transform:translateX(0)}50%{transform:translateX(5px)}}@keyframes moveCloudY{0%,to{transform:translateY(0)}50%{transform:translateY(5px)}}.dot{animation:dotAnimation 1.5s infinite}</style><g class="ldl-scale" style="transform-origin:50% 50%;transform:rotate(0deg) scale(.64,.64);animation-play-state:paused"><path stroke-miterlimit="10" stroke-width="3.678" stroke="#333" fill="#f5e6c8" d="M85.402 50.459c0 2.797-2.049 5.318-5.328 7.116.014.205.041.407.041.615 0 6.365-6.741 11.524-15.057 11.524-4.137 0-7.883-1.279-10.605-3.346-1.716 2.871-4.712 4.78-8.13 4.78-3.411 0-6.402-1.9-8.119-4.76a17.714 17.714 0 0 1-6.133 1.082c-8.76 0-15.862-6.241-15.862-13.939 0-.356.031-.705.061-1.054a11.387 11.387 0 0 1-4.428-9.029c0-4.999 3.196-9.235 7.632-10.763.446-7.066 6.185-12.754 13.465-13.42C33.834 13.999 38.193 10 43.448 10c3.738 0 7.024 2.026 8.935 5.089a15.49 15.49 0 0 1 3.881-.491c3.657 0 6.948 1.257 9.283 3.262a19.993 19.993 0 0 1 4.395-.503c10.062 0 18.218 7.385 18.218 16.494 0 4.5-1.996 8.575-5.223 11.551 1.555 1.48 2.465 3.206 2.465 5.057z" style="stroke:#221f1f;fill:#f5f5f1;animation-play-state:paused;animation:moveCloudY 6s ease-in-out infinite"/><ellipse stroke-miterlimit="10" stroke-width="2.759" stroke="#333" fill="#f5e6c8" ry="4.89" rx="6.609" cy="80.176" cx="62.464" transform="rotate(-.642 62.409 80.108)" style="stroke:#221f1f;fill:#f5f5f1;animation-play-state:paused;animation:moveCloudX 3s ease-in-out infinite alternate"/><path stroke-miterlimit="10" stroke-width="2.759" stroke="#333" fill="#f5e6c8" d="M78.028 82.327c-2.545-.135-4.669 1.472-4.745 3.589-.076 2.117 1.926 3.942 4.471 4.077 2.545.135 4.669-1.472 4.745-3.589.075-2.117-1.926-3.943-4.471-4.077z" style="stroke:#221f1f;fill:#f5f5f1;animation-play-state:paused;animation:moveCloudX 3.5s ease-in-out infinite alternate"/><circle class="dot" cx="40" cy="45" r="3" style="animation:dotAnimation 1.5s infinite,moveCloudY 6s ease-in-out infinite"/><circle class="dot" cx="50" cy="45" r="3" style="animation:dotAnimation 1.5s infinite,moveCloudY 6s ease-in-out infinite;animation-delay:.5s"/><circle class="dot" cx="60" cy="45" r="3" style="animation:dotAnimation 1.5s infinite,moveCloudY 6s ease-in-out infinite;animation-delay:1s"/></g></svg>